<svg xmlns="http://www.w3.org/2000/svg" xmlns:xlink="http://www.w3.org/1999/xlink" id="Layer_1" x="0" y="0" enable-background="new 0 0 841.9 595.3" version="1.1" viewBox="0 0 841.9 595.3" xml:space="preserve"><style type="text/css">.st0{fill:#00d1b2}.st1{fill:url(#XMLID_2_)}.st2{font-family:&apos;LemonMilk&apos;}.st3{font-size:186.299px}</style><path id="XMLID_201_" d="M403.6,246.7c-51.8-19-168.8,1-156.3-88.9c40.6,12.1,162.6-34.4,169.4-53.5	c-6.2-12.3,6.2-30.9-1.9-27.5C373.6,94,298.6,43,265.9,58.1c-24.6,11.4-78.5-19.5-78.5-19.5c16.4,8.3,14.6,31.5,15,33.5	c0,0-31.7,3.1-85.1-22c31.4,26.8,46.2,32.1,45.5,40.7c-10.2-4-63-22.1-119.6,54.1c100.8-58.1,130.3-18.1,130.3-18.1	c6.5,66.9,9.7,94.4,64.5,132.3C267.5,279.6,403.6,246.7,403.6,246.7z" class="st0"/><path id="XMLID_200_" d="M248.6,321.5c6.1,116.3-32.8,222.7-32.8,222.7c91.7-161.4,100.2-207.5,97.4-214.1	C311.2,332.6,261.1,330.7,248.6,321.5z" class="st0"/><linearGradient id="XMLID_2_" x1="180.038" x2="417.616" y1="289.541" y2="289.541" gradientUnits="userSpaceOnUse"><stop offset="0" stop-color="#00CDB4"/><stop offset=".346" stop-color="#68FFD7"/><stop offset="1" stop-color="#00d1b2"/></linearGradient><path id="XMLID_199_" d="M180.6,321.5c-5.5,15.5,154.9,15.7,217.1,0.1c28.2-7.1,24.7-78.4,0.4-75.6	c-82.8,9.3-120.3,13-215.6,1.8C173.1,246.6,194.1,283.6,180.6,321.5z" class="st1"/><text id="XMLID_63_" class="st0 st2 st3" transform="matrix(1.006 0 0 1 281.3604 502.3633)">ulma</text></svg>